<svg xmlns="http://www.w3.org/2000/svg" width="640" height="400" viewBox="0 0 640 400">
  <rect width="640" height="400" fill="#000000"/>
  <defs><radialGradient id="v" cx="50%" cy="50%" r="75%">
    <stop offset="60%" stop-color="#000000"/><stop offset="100%" stop-color="#0A0A0A"/>
  </radialGradient></defs>
  <circle cx="407.6" cy="198.2" r="1.24" fill="#FFFFFF" opacity="0.55"/><circle cx="546.0" cy="34.8" r="0.41" fill="#FFFFFF" opacity="0.52"/><circle cx="81.2" cy="215.5" r="1.38" fill="#FFFFFF" opacity="0.44"/><circle cx="214.3" cy="231.6" r="0.61" fill="#FFFFFF" opacity="0.70"/><circle cx="487.0" cy="93.0" r="1.04" fill="#FFFFFF" opacity="0.72"/><circle cx="417.3" cy="16.9" r="0.89" fill="#FFFFFF" opacity="0.73"/><circle cx="281.7" cy="383.6" r="0.92" fill="#FFFFFF" opacity="0.39"/><circle cx="404.2" cy="358.6" r="1.38" fill="#FFFFFF" opacity="0.73"/><circle cx="231.8" cy="381.3" r="0.73" fill="#FFFFFF" opacity="0.44"/><circle cx="396.5" cy="120.8" r="0.71" fill="#FFFFFF" opacity="0.45"/><circle cx="84.5" cy="298.2" r="1.06" fill="#FFFFFF" opacity="0.40"/><circle cx="591.5" cy="375.2" r="0.52" fill="#FFFFFF" opacity="0.41"/><circle cx="345.4" cy="109.8" r="0.69" fill="#FFFFFF" opacity="0.71"/><circle cx="594.3" cy="178.6" r="0.83" fill="#FFFFFF" opacity="0.54"/><circle cx="3.1" cy="265.5" r="1.01" fill="#FFFFFF" opacity="0.47"/><circle cx="555.0" cy="217.4" r="0.52" fill="#FFFFFF" opacity="0.51"/><circle cx="440.5" cy="266.4" r="0.32" fill="#FFFFFF" opacity="0.50"/><circle cx="173.2" cy="318.7" r="0.73" fill="#FFFFFF" opacity="0.46"/><circle cx="172.0" cy="310.1" r="0.91" fill="#FFFFFF" opacity="0.67"/><circle cx="49.6" cy="28.3" r="1.35" fill="#FFFFFF" opacity="0.61"/><circle cx="248.5" cy="1.6" r="0.40" fill="#FFFFFF" opacity="0.71"/><circle cx="263.1" cy="254.7" r="0.41" fill="#FFFFFF" opacity="0.55"/><circle cx="488.4" cy="130.9" r="1.37" fill="#FFFFFF" opacity="0.69"/><circle cx="15.7" cy="380.7" r="0.77" fill="#FFFFFF" opacity="0.55"/><circle cx="614.9" cy="317.8" r="0.84" fill="#FFFFFF" opacity="0.46"/><circle cx="263.4" cy="40.9" r="1.09" fill="#FFFFFF" opacity="0.60"/><circle cx="541.3" cy="122.9" r="0.36" fill="#FFFFFF" opacity="0.32"/><circle cx="374.2" cy="366.1" r="0.75" fill="#FFFFFF" opacity="0.74"/><circle cx="441.4" cy="25.0" r="1.27" fill="#FFFFFF" opacity="0.65"/><circle cx="332.2" cy="294.6" r="1.01" fill="#FFFFFF" opacity="0.35"/><circle cx="607.5" cy="266.3" r="0.86" fill="#FFFFFF" opacity="0.72"/><circle cx="169.0" cy="349.9" r="0.43" fill="#FFFFFF" opacity="0.68"/><circle cx="454.9" cy="362.7" r="1.26" fill="#FFFFFF" opacity="0.47"/><circle cx="461.5" cy="284.9" r="0.81" fill="#FFFFFF" opacity="0.74"/><circle cx="513.0" cy="82.1" r="0.40" fill="#FFFFFF" opacity="0.53"/><circle cx="56.1" cy="193.7" r="0.73" fill="#FFFFFF" opacity="0.51"/><circle cx="363.0" cy="288.8" r="1.32" fill="#FFFFFF" opacity="0.63"/><circle cx="619.9" cy="288.4" r="0.82" fill="#FFFFFF" opacity="0.52"/><circle cx="202.5" cy="54.3" r="1.26" fill="#FFFFFF" opacity="0.32"/><circle cx="98.5" cy="144.5" r="0.94" fill="#FFFFFF" opacity="0.72"/><circle cx="276.4" cy="35.5" r="1.33" fill="#FFFFFF" opacity="0.50"/><circle cx="40.8" cy="211.2" r="1.38" fill="#FFFFFF" opacity="0.71"/>
  <circle cx="250" cy="170" r="4" fill="#F5A623"/>
      <path d="M 170 270 Q 320 110 470 270" fill="none" stroke="#D4891A" stroke-width="3" opacity="0.7"/>
</svg>