<svg xmlns="http://www.w3.org/2000/svg" width="1200" height="750" viewBox="0 0 1200 750">
  <rect width="1200" height="750" fill="#000000"/>
  <circle cx="134.6" cy="318.0" r="0.61" fill="#FFFFFF" opacity="0.53"/><circle cx="1037.2" cy="321.2" r="1.04" fill="#FFFFFF" opacity="0.47"/><circle cx="1016.4" cy="654.6" r="0.93" fill="#FFFFFF" opacity="0.73"/><circle cx="679.5" cy="503.5" r="0.50" fill="#FFFFFF" opacity="0.34"/><circle cx="189.5" cy="691.9" r="0.42" fill="#FFFFFF" opacity="0.47"/><circle cx="731.6" cy="599.4" r="1.35" fill="#FFFFFF" opacity="0.58"/><circle cx="779.9" cy="77.8" r="0.82" fill="#FFFFFF" opacity="0.29"/><circle cx="364.0" cy="368.0" r="0.86" fill="#FFFFFF" opacity="0.74"/><circle cx="135.7" cy="266.3" r="0.88" fill="#FFFFFF" opacity="0.63"/><circle cx="35.9" cy="291.1" r="1.24" fill="#FFFFFF" opacity="0.73"/><circle cx="1160.7" cy="599.8" r="0.89" fill="#FFFFFF" opacity="0.59"/><circle cx="28.8" cy="155.4" r="1.35" fill="#FFFFFF" opacity="0.72"/><circle cx="447.4" cy="143.2" r="1.36" fill="#FFFFFF" opacity="0.48"/><circle cx="979.7" cy="387.1" r="1.25" fill="#FFFFFF" opacity="0.37"/><circle cx="10.7" cy="16.8" r="1.28" fill="#FFFFFF" opacity="0.68"/><circle cx="414.5" cy="134.2" r="0.84" fill="#FFFFFF" opacity="0.37"/><circle cx="620.8" cy="230.0" r="0.47" fill="#FFFFFF" opacity="0.41"/><circle cx="881.5" cy="350.4" r="0.32" fill="#FFFFFF" opacity="0.34"/><circle cx="737.2" cy="14.1" r="0.39" fill="#FFFFFF" opacity="0.25"/><circle cx="884.2" cy="628.4" r="0.38" fill="#FFFFFF" opacity="0.55"/><circle cx="1041.2" cy="156.3" r="1.40" fill="#FFFFFF" opacity="0.54"/><circle cx="1015.4" cy="282.9" r="0.76" fill="#FFFFFF" opacity="0.45"/><circle cx="169.9" cy="582.4" r="0.61" fill="#FFFFFF" opacity="0.60"/><circle cx="89.8" cy="684.3" r="0.85" fill="#FFFFFF" opacity="0.62"/><circle cx="849.2" cy="690.6" r="0.48" fill="#FFFFFF" opacity="0.29"/><circle cx="477.7" cy="591.9" r="0.80" fill="#FFFFFF" opacity="0.42"/><circle cx="27.2" cy="184.6" r="0.50" fill="#FFFFFF" opacity="0.39"/><circle cx="1038.5" cy="237.1" r="1.38" fill="#FFFFFF" opacity="0.62"/><circle cx="207.8" cy="407.0" r="0.59" fill="#FFFFFF" opacity="0.33"/><circle cx="453.6" cy="657.1" r="1.08" fill="#FFFFFF" opacity="0.70"/><circle cx="1183.4" cy="172.6" r="0.90" fill="#FFFFFF" opacity="0.26"/><circle cx="160.0" cy="527.6" r="0.70" fill="#FFFFFF" opacity="0.67"/><circle cx="968.8" cy="351.8" r="1.14" fill="#FFFFFF" opacity="0.39"/><circle cx="883.8" cy="246.9" r="0.86" fill="#FFFFFF" opacity="0.54"/><circle cx="1134.6" cy="703.8" r="0.77" fill="#FFFFFF" opacity="0.27"/><circle cx="1173.0" cy="518.7" r="0.30" fill="#FFFFFF" opacity="0.27"/><circle cx="939.8" cy="210.2" r="0.90" fill="#FFFFFF" opacity="0.31"/><circle cx="331.3" cy="685.6" r="0.44" fill="#FFFFFF" opacity="0.45"/><circle cx="666.0" cy="157.9" r="0.40" fill="#FFFFFF" opacity="0.69"/><circle cx="951.3" cy="562.3" r="0.66" fill="#FFFFFF" opacity="0.39"/><circle cx="950.2" cy="222.9" r="0.43" fill="#FFFFFF" opacity="0.57"/><circle cx="247.9" cy="519.3" r="1.07" fill="#FFFFFF" opacity="0.49"/><circle cx="518.4" cy="303.3" r="0.87" fill="#FFFFFF" opacity="0.63"/><circle cx="191.4" cy="565.7" r="0.38" fill="#FFFFFF" opacity="0.44"/><circle cx="718.7" cy="602.9" r="0.85" fill="#FFFFFF" opacity="0.48"/><circle cx="441.1" cy="683.2" r="1.16" fill="#FFFFFF" opacity="0.34"/><circle cx="54.8" cy="714.2" r="1.02" fill="#FFFFFF" opacity="0.41"/><circle cx="478.4" cy="158.7" r="0.46" fill="#FFFFFF" opacity="0.52"/><circle cx="319.3" cy="702.0" r="1.16" fill="#FFFFFF" opacity="0.37"/><circle cx="140.4" cy="418.1" r="0.89" fill="#FFFFFF" opacity="0.30"/><circle cx="327.0" cy="436.7" r="0.64" fill="#FFFFFF" opacity="0.42"/><circle cx="953.1" cy="109.7" r="0.52" fill="#FFFFFF" opacity="0.54"/><circle cx="48.3" cy="177.7" r="0.72" fill="#FFFFFF" opacity="0.45"/><circle cx="1064.4" cy="437.0" r="1.02" fill="#FFFFFF" opacity="0.53"/><circle cx="742.4" cy="156.2" r="1.05" fill="#FFFFFF" opacity="0.70"/><circle cx="578.3" cy="492.7" r="1.24" fill="#FFFFFF" opacity="0.70"/><circle cx="1090.8" cy="659.5" r="1.24" fill="#FFFFFF" opacity="0.68"/><circle cx="487.2" cy="591.7" r="1.30" fill="#FFFFFF" opacity="0.67"/><circle cx="130.6" cy="363.4" r="0.98" fill="#FFFFFF" opacity="0.37"/><circle cx="6.1" cy="104.2" r="0.93" fill="#FFFFFF" opacity="0.69"/><circle cx="987.7" cy="416.0" r="0.89" fill="#FFFFFF" opacity="0.29"/><circle cx="705.1" cy="289.6" r="0.69" fill="#FFFFFF" opacity="0.30"/><circle cx="1010.2" cy="21.1" r="0.83" fill="#FFFFFF" opacity="0.41"/><circle cx="643.7" cy="129.3" r="0.57" fill="#FFFFFF" opacity="0.40"/><circle cx="701.8" cy="21.3" r="1.08" fill="#FFFFFF" opacity="0.32"/><circle cx="103.2" cy="160.3" r="0.56" fill="#FFFFFF" opacity="0.67"/><circle cx="255.2" cy="231.4" r="1.06" fill="#FFFFFF" opacity="0.31"/><circle cx="920.8" cy="58.6" r="0.71" fill="#FFFFFF" opacity="0.26"/><circle cx="485.1" cy="271.7" r="0.86" fill="#FFFFFF" opacity="0.29"/><circle cx="622.3" cy="472.4" r="0.90" fill="#FFFFFF" opacity="0.38"/><circle cx="962.0" cy="151.5" r="1.39" fill="#FFFFFF" opacity="0.47"/><circle cx="555.9" cy="105.3" r="1.37" fill="#FFFFFF" opacity="0.63"/><circle cx="145.0" cy="602.3" r="0.83" fill="#FFFFFF" opacity="0.42"/><circle cx="425.4" cy="49.9" r="0.57" fill="#FFFFFF" opacity="0.27"/><circle cx="1115.6" cy="161.1" r="0.61" fill="#FFFFFF" opacity="0.49"/><circle cx="823.2" cy="371.1" r="0.46" fill="#FFFFFF" opacity="0.29"/><circle cx="111.0" cy="253.9" r="1.17" fill="#FFFFFF" opacity="0.50"/><circle cx="564.2" cy="189.2" r="0.43" fill="#FFFFFF" opacity="0.73"/><circle cx="1056.9" cy="278.8" r="0.55" fill="#FFFFFF" opacity="0.30"/><circle cx="818.8" cy="513.4" r="0.63" fill="#FFFFFF" opacity="0.48"/><circle cx="901.7" cy="689.4" r="0.44" fill="#FFFFFF" opacity="0.67"/><circle cx="446.3" cy="75.3" r="0.72" fill="#FFFFFF" opacity="0.29"/><circle cx="948.9" cy="578.5" r="0.78" fill="#FFFFFF" opacity="0.56"/><circle cx="528.0" cy="661.9" r="1.40" fill="#FFFFFF" opacity="0.65"/><circle cx="991.1" cy="260.8" r="0.60" fill="#FFFFFF" opacity="0.59"/><circle cx="101.2" cy="199.1" r="1.26" fill="#FFFFFF" opacity="0.56"/><circle cx="243.3" cy="606.6" r="0.72" fill="#FFFFFF" opacity="0.50"/><circle cx="1091.6" cy="585.1" r="0.93" fill="#FFFFFF" opacity="0.55"/><circle cx="275.7" cy="625.3" r="0.60" fill="#FFFFFF" opacity="0.32"/><circle cx="847.4" cy="273.6" r="1.35" fill="#FFFFFF" opacity="0.55"/>
  <circle cx="600" cy="375" r="150" fill="#1A1A1A"/>
      <path d="M 410 315 q 90 40 180 10 q 90 -30 200 20" fill="none" stroke="#7A4510" stroke-width="3"/>
      <circle cx="660" cy="335" r="70" fill="#F5A623" opacity="0.12"/>
  <rect width="1200" height="750" fill="url(#vg)" opacity="0.5" />
  <defs><radialGradient id="vg" cx="50%" cy="50%" r="80%">
    <stop offset="55%" stop-color="#000000" stop-opacity="0"/>
    <stop offset="100%" stop-color="#000000" stop-opacity="0.55"/>
  </radialGradient></defs>
</svg>