<svg xmlns="http://www.w3.org/2000/svg" width="1200" height="750" viewBox="0 0 1200 750">
  <rect width="1200" height="750" fill="#000000"/>
  <circle cx="1187.2" cy="610.5" r="1.17" fill="#FFFFFF" opacity="0.40"/><circle cx="818.2" cy="615.3" r="0.65" fill="#FFFFFF" opacity="0.45"/><circle cx="622.0" cy="357.6" r="0.75" fill="#FFFFFF" opacity="0.40"/><circle cx="228.3" cy="78.4" r="0.93" fill="#FFFFFF" opacity="0.69"/><circle cx="1089.0" cy="573.9" r="1.34" fill="#FFFFFF" opacity="0.37"/><circle cx="344.7" cy="612.5" r="0.86" fill="#FFFFFF" opacity="0.53"/><circle cx="1091.7" cy="101.8" r="1.39" fill="#FFFFFF" opacity="0.57"/><circle cx="648.7" cy="4.7" r="0.76" fill="#FFFFFF" opacity="0.32"/><circle cx="22.9" cy="506.3" r="0.68" fill="#FFFFFF" opacity="0.47"/><circle cx="977.4" cy="430.8" r="1.07" fill="#FFFFFF" opacity="0.38"/><circle cx="297.3" cy="157.7" r="0.76" fill="#FFFFFF" opacity="0.64"/><circle cx="456.7" cy="539.0" r="0.95" fill="#FFFFFF" opacity="0.57"/><circle cx="685.2" cy="65.3" r="0.72" fill="#FFFFFF" opacity="0.45"/><circle cx="834.7" cy="33.0" r="0.96" fill="#FFFFFF" opacity="0.66"/><circle cx="46.0" cy="460.6" r="1.30" fill="#FFFFFF" opacity="0.64"/><circle cx="1015.3" cy="255.4" r="1.06" fill="#FFFFFF" opacity="0.61"/><circle cx="661.1" cy="130.5" r="1.00" fill="#FFFFFF" opacity="0.73"/><circle cx="790.9" cy="21.0" r="1.36" fill="#FFFFFF" opacity="0.53"/><circle cx="367.5" cy="1.1" r="0.62" fill="#FFFFFF" opacity="0.69"/><circle cx="576.3" cy="200.2" r="0.51" fill="#FFFFFF" opacity="0.66"/><circle cx="1091.3" cy="470.4" r="0.77" fill="#FFFFFF" opacity="0.57"/><circle cx="742.1" cy="552.3" r="1.24" fill="#FFFFFF" opacity="0.54"/><circle cx="180.5" cy="742.2" r="1.32" fill="#FFFFFF" opacity="0.29"/><circle cx="547.3" cy="58.6" r="1.37" fill="#FFFFFF" opacity="0.59"/><circle cx="538.8" cy="159.0" r="0.35" fill="#FFFFFF" opacity="0.48"/><circle cx="273.5" cy="6.3" r="0.87" fill="#FFFFFF" opacity="0.47"/><circle cx="1158.8" cy="35.7" r="0.58" fill="#FFFFFF" opacity="0.42"/><circle cx="557.7" cy="71.3" r="0.89" fill="#FFFFFF" opacity="0.34"/><circle cx="455.4" cy="742.7" r="0.99" fill="#FFFFFF" opacity="0.51"/><circle cx="125.9" cy="151.7" r="1.34" fill="#FFFFFF" opacity="0.40"/><circle cx="398.9" cy="39.2" r="1.39" fill="#FFFFFF" opacity="0.47"/><circle cx="326.2" cy="451.3" r="1.31" fill="#FFFFFF" opacity="0.26"/><circle cx="648.6" cy="156.6" r="1.07" fill="#FFFFFF" opacity="0.36"/><circle cx="862.3" cy="562.6" r="0.39" fill="#FFFFFF" opacity="0.68"/><circle cx="685.9" cy="382.1" r="0.37" fill="#FFFFFF" opacity="0.54"/><circle cx="1126.8" cy="550.4" r="0.53" fill="#FFFFFF" opacity="0.64"/><circle cx="347.9" cy="641.6" r="0.80" fill="#FFFFFF" opacity="0.32"/><circle cx="1134.5" cy="285.2" r="1.10" fill="#FFFFFF" opacity="0.70"/><circle cx="1160.6" cy="333.1" r="0.43" fill="#FFFFFF" opacity="0.57"/><circle cx="855.8" cy="26.1" r="1.18" fill="#FFFFFF" opacity="0.73"/><circle cx="71.9" cy="660.4" r="0.94" fill="#FFFFFF" opacity="0.56"/><circle cx="349.9" cy="4.7" r="0.41" fill="#FFFFFF" opacity="0.48"/><circle cx="785.8" cy="716.2" r="1.15" fill="#FFFFFF" opacity="0.72"/><circle cx="698.3" cy="507.9" r="0.61" fill="#FFFFFF" opacity="0.45"/><circle cx="694.7" cy="65.1" r="1.21" fill="#FFFFFF" opacity="0.70"/><circle cx="938.1" cy="211.8" r="0.35" fill="#FFFFFF" opacity="0.64"/><circle cx="213.6" cy="327.6" r="0.85" fill="#FFFFFF" opacity="0.72"/><circle cx="595.2" cy="264.5" r="1.36" fill="#FFFFFF" opacity="0.57"/><circle cx="912.6" cy="513.0" r="0.60" fill="#FFFFFF" opacity="0.32"/><circle cx="617.7" cy="619.6" r="1.29" fill="#FFFFFF" opacity="0.69"/><circle cx="851.2" cy="352.7" r="0.49" fill="#FFFFFF" opacity="0.42"/><circle cx="309.3" cy="619.8" r="0.45" fill="#FFFFFF" opacity="0.59"/><circle cx="310.7" cy="383.7" r="0.48" fill="#FFFFFF" opacity="0.69"/><circle cx="1062.7" cy="79.8" r="0.43" fill="#FFFFFF" opacity="0.59"/><circle cx="1128.3" cy="282.1" r="0.62" fill="#FFFFFF" opacity="0.29"/><circle cx="92.6" cy="120.1" r="1.33" fill="#FFFFFF" opacity="0.57"/><circle cx="829.8" cy="695.8" r="0.82" fill="#FFFFFF" opacity="0.40"/><circle cx="569.5" cy="749.9" r="0.76" fill="#FFFFFF" opacity="0.75"/><circle cx="763.4" cy="328.7" r="1.28" fill="#FFFFFF" opacity="0.65"/><circle cx="952.5" cy="450.7" r="1.29" fill="#FFFFFF" opacity="0.70"/><circle cx="632.9" cy="273.4" r="0.48" fill="#FFFFFF" opacity="0.30"/><circle cx="723.1" cy="9.6" r="1.08" fill="#FFFFFF" opacity="0.27"/><circle cx="1030.7" cy="594.5" r="0.38" fill="#FFFFFF" opacity="0.31"/><circle cx="918.5" cy="102.3" r="0.53" fill="#FFFFFF" opacity="0.27"/><circle cx="771.7" cy="412.6" r="0.34" fill="#FFFFFF" opacity="0.25"/><circle cx="664.4" cy="127.2" r="1.01" fill="#FFFFFF" opacity="0.57"/><circle cx="1026.3" cy="736.9" r="0.54" fill="#FFFFFF" opacity="0.51"/><circle cx="509.2" cy="537.9" r="0.91" fill="#FFFFFF" opacity="0.45"/><circle cx="653.8" cy="298.8" r="0.63" fill="#FFFFFF" opacity="0.31"/><circle cx="556.4" cy="426.9" r="1.25" fill="#FFFFFF" opacity="0.33"/><circle cx="735.5" cy="135.4" r="1.31" fill="#FFFFFF" opacity="0.67"/><circle cx="598.6" cy="109.2" r="1.06" fill="#FFFFFF" opacity="0.37"/><circle cx="308.7" cy="422.6" r="1.17" fill="#FFFFFF" opacity="0.59"/><circle cx="1050.8" cy="455.1" r="1.19" fill="#FFFFFF" opacity="0.27"/><circle cx="99.1" cy="58.6" r="0.84" fill="#FFFFFF" opacity="0.57"/><circle cx="1083.2" cy="473.8" r="1.06" fill="#FFFFFF" opacity="0.60"/><circle cx="1054.9" cy="497.0" r="1.27" fill="#FFFFFF" opacity="0.58"/><circle cx="1155.1" cy="646.8" r="0.70" fill="#FFFFFF" opacity="0.26"/><circle cx="79.9" cy="330.5" r="0.54" fill="#FFFFFF" opacity="0.70"/><circle cx="347.9" cy="11.2" r="1.18" fill="#FFFFFF" opacity="0.42"/><circle cx="966.6" cy="123.9" r="1.38" fill="#FFFFFF" opacity="0.26"/><circle cx="498.8" cy="492.8" r="0.35" fill="#FFFFFF" opacity="0.73"/><circle cx="929.9" cy="247.6" r="0.57" fill="#FFFFFF" opacity="0.63"/><circle cx="333.7" cy="489.9" r="0.30" fill="#FFFFFF" opacity="0.40"/><circle cx="740.0" cy="710.7" r="1.22" fill="#FFFFFF" opacity="0.53"/><circle cx="0.7" cy="206.2" r="1.26" fill="#FFFFFF" opacity="0.54"/><circle cx="56.4" cy="744.8" r="0.41" fill="#FFFFFF" opacity="0.53"/><circle cx="403.4" cy="734.1" r="0.58" fill="#FFFFFF" opacity="0.41"/><circle cx="760.3" cy="387.0" r="0.68" fill="#FFFFFF" opacity="0.49"/><circle cx="934.6" cy="638.6" r="1.33" fill="#FFFFFF" opacity="0.48"/>
  <circle cx="600" cy="375" r="150" fill="#1A1A1A"/>
      <path d="M 410 315 q 90 40 180 10 q 90 -30 200 20" fill="none" stroke="#7A4510" stroke-width="3"/>
      <circle cx="660" cy="335" r="70" fill="#F5A623" opacity="0.12"/>
  <rect width="1200" height="750" fill="url(#vg)" opacity="0.5" />
  <defs><radialGradient id="vg" cx="50%" cy="50%" r="80%">
    <stop offset="55%" stop-color="#000000" stop-opacity="0"/>
    <stop offset="100%" stop-color="#000000" stop-opacity="0.55"/>
  </radialGradient></defs>
</svg>