<svg xmlns="http://www.w3.org/2000/svg" width="1200" height="750" viewBox="0 0 1200 750">
  <rect width="1200" height="750" fill="#000000"/>
  <circle cx="366.0" cy="299.3" r="0.34" fill="#FFFFFF" opacity="0.44"/><circle cx="1089.7" cy="681.3" r="1.15" fill="#FFFFFF" opacity="0.68"/><circle cx="30.5" cy="662.1" r="1.04" fill="#FFFFFF" opacity="0.65"/><circle cx="151.7" cy="565.8" r="1.04" fill="#FFFFFF" opacity="0.71"/><circle cx="638.2" cy="21.9" r="1.06" fill="#FFFFFF" opacity="0.46"/><circle cx="364.3" cy="632.3" r="1.21" fill="#FFFFFF" opacity="0.70"/><circle cx="959.5" cy="137.8" r="0.59" fill="#FFFFFF" opacity="0.74"/><circle cx="1075.7" cy="584.7" r="1.17" fill="#FFFFFF" opacity="0.44"/><circle cx="1053.6" cy="491.4" r="0.37" fill="#FFFFFF" opacity="0.74"/><circle cx="1189.6" cy="265.4" r="0.83" fill="#FFFFFF" opacity="0.36"/><circle cx="802.1" cy="619.7" r="1.11" fill="#FFFFFF" opacity="0.46"/><circle cx="498.5" cy="739.3" r="0.34" fill="#FFFFFF" opacity="0.58"/><circle cx="441.9" cy="698.5" r="0.30" fill="#FFFFFF" opacity="0.40"/><circle cx="617.3" cy="626.9" r="0.53" fill="#FFFFFF" opacity="0.35"/><circle cx="698.9" cy="376.2" r="0.77" fill="#FFFFFF" opacity="0.58"/><circle cx="716.4" cy="437.2" r="0.83" fill="#FFFFFF" opacity="0.71"/><circle cx="121.4" cy="356.3" r="1.25" fill="#FFFFFF" opacity="0.45"/><circle cx="54.9" cy="651.9" r="1.27" fill="#FFFFFF" opacity="0.56"/><circle cx="413.1" cy="731.5" r="0.96" fill="#FFFFFF" opacity="0.60"/><circle cx="114.5" cy="308.0" r="0.71" fill="#FFFFFF" opacity="0.58"/><circle cx="566.5" cy="566.5" r="0.39" fill="#FFFFFF" opacity="0.35"/><circle cx="332.0" cy="581.3" r="0.31" fill="#FFFFFF" opacity="0.43"/><circle cx="196.4" cy="231.8" r="0.74" fill="#FFFFFF" opacity="0.58"/><circle cx="633.6" cy="620.1" r="1.05" fill="#FFFFFF" opacity="0.29"/><circle cx="73.2" cy="486.7" r="0.71" fill="#FFFFFF" opacity="0.51"/><circle cx="1167.2" cy="627.9" r="0.97" fill="#FFFFFF" opacity="0.29"/><circle cx="1056.2" cy="562.5" r="0.70" fill="#FFFFFF" opacity="0.71"/><circle cx="436.6" cy="197.6" r="0.71" fill="#FFFFFF" opacity="0.68"/><circle cx="226.9" cy="496.3" r="1.03" fill="#FFFFFF" opacity="0.53"/><circle cx="234.4" cy="143.7" r="1.16" fill="#FFFFFF" opacity="0.45"/><circle cx="1022.2" cy="214.0" r="1.04" fill="#FFFFFF" opacity="0.28"/><circle cx="575.5" cy="336.8" r="0.57" fill="#FFFFFF" opacity="0.64"/><circle cx="168.2" cy="613.9" r="0.97" fill="#FFFFFF" opacity="0.33"/><circle cx="230.1" cy="286.1" r="1.33" fill="#FFFFFF" opacity="0.64"/><circle cx="612.9" cy="649.6" r="0.32" fill="#FFFFFF" opacity="0.46"/><circle cx="457.5" cy="223.0" r="0.86" fill="#FFFFFF" opacity="0.70"/><circle cx="60.1" cy="163.7" r="1.20" fill="#FFFFFF" opacity="0.59"/><circle cx="1139.3" cy="434.6" r="1.00" fill="#FFFFFF" opacity="0.31"/><circle cx="702.4" cy="220.9" r="0.47" fill="#FFFFFF" opacity="0.38"/><circle cx="112.4" cy="346.8" r="0.31" fill="#FFFFFF" opacity="0.47"/><circle cx="554.5" cy="191.8" r="1.15" fill="#FFFFFF" opacity="0.54"/><circle cx="502.8" cy="357.8" r="0.53" fill="#FFFFFF" opacity="0.71"/><circle cx="1186.9" cy="585.5" r="0.47" fill="#FFFFFF" opacity="0.61"/><circle cx="858.7" cy="421.2" r="0.40" fill="#FFFFFF" opacity="0.46"/><circle cx="658.8" cy="383.5" r="0.66" fill="#FFFFFF" opacity="0.52"/><circle cx="483.6" cy="629.7" r="1.33" fill="#FFFFFF" opacity="0.34"/><circle cx="451.7" cy="122.9" r="0.59" fill="#FFFFFF" opacity="0.43"/><circle cx="770.3" cy="48.1" r="0.51" fill="#FFFFFF" opacity="0.64"/><circle cx="2.6" cy="229.6" r="0.31" fill="#FFFFFF" opacity="0.50"/><circle cx="133.6" cy="546.8" r="1.35" fill="#FFFFFF" opacity="0.26"/><circle cx="437.4" cy="601.6" r="0.81" fill="#FFFFFF" opacity="0.42"/><circle cx="543.8" cy="634.9" r="0.35" fill="#FFFFFF" opacity="0.41"/><circle cx="704.4" cy="692.9" r="1.21" fill="#FFFFFF" opacity="0.30"/><circle cx="460.1" cy="294.0" r="1.19" fill="#FFFFFF" opacity="0.67"/><circle cx="507.2" cy="95.8" r="1.08" fill="#FFFFFF" opacity="0.42"/><circle cx="564.1" cy="311.2" r="0.92" fill="#FFFFFF" opacity="0.38"/><circle cx="438.3" cy="375.3" r="1.29" fill="#FFFFFF" opacity="0.74"/><circle cx="692.8" cy="612.3" r="1.04" fill="#FFFFFF" opacity="0.35"/><circle cx="512.7" cy="651.8" r="1.19" fill="#FFFFFF" opacity="0.32"/><circle cx="1172.1" cy="595.5" r="0.73" fill="#FFFFFF" opacity="0.46"/><circle cx="700.6" cy="434.3" r="0.96" fill="#FFFFFF" opacity="0.55"/><circle cx="150.1" cy="714.5" r="0.56" fill="#FFFFFF" opacity="0.47"/><circle cx="1061.4" cy="704.6" r="1.36" fill="#FFFFFF" opacity="0.66"/><circle cx="130.7" cy="61.9" r="0.47" fill="#FFFFFF" opacity="0.33"/><circle cx="276.5" cy="249.5" r="0.88" fill="#FFFFFF" opacity="0.66"/><circle cx="906.3" cy="452.5" r="0.60" fill="#FFFFFF" opacity="0.67"/><circle cx="983.0" cy="745.1" r="0.31" fill="#FFFFFF" opacity="0.54"/><circle cx="491.7" cy="506.7" r="0.66" fill="#FFFFFF" opacity="0.72"/><circle cx="306.7" cy="339.4" r="1.38" fill="#FFFFFF" opacity="0.33"/><circle cx="457.5" cy="733.8" r="1.21" fill="#FFFFFF" opacity="0.51"/><circle cx="395.9" cy="486.2" r="0.65" fill="#FFFFFF" opacity="0.48"/><circle cx="62.7" cy="115.1" r="1.15" fill="#FFFFFF" opacity="0.48"/><circle cx="554.2" cy="528.0" r="0.60" fill="#FFFFFF" opacity="0.58"/><circle cx="788.9" cy="687.8" r="0.47" fill="#FFFFFF" opacity="0.28"/><circle cx="974.2" cy="279.7" r="0.64" fill="#FFFFFF" opacity="0.44"/><circle cx="873.1" cy="627.8" r="0.31" fill="#FFFFFF" opacity="0.57"/><circle cx="70.8" cy="111.7" r="0.86" fill="#FFFFFF" opacity="0.44"/><circle cx="241.3" cy="583.2" r="0.57" fill="#FFFFFF" opacity="0.54"/><circle cx="1014.3" cy="33.2" r="1.09" fill="#FFFFFF" opacity="0.32"/><circle cx="241.6" cy="7.8" r="0.36" fill="#FFFFFF" opacity="0.32"/><circle cx="1064.0" cy="25.6" r="0.58" fill="#FFFFFF" opacity="0.63"/><circle cx="577.7" cy="744.1" r="0.35" fill="#FFFFFF" opacity="0.66"/><circle cx="901.3" cy="126.1" r="0.80" fill="#FFFFFF" opacity="0.73"/><circle cx="642.2" cy="606.9" r="0.31" fill="#FFFFFF" opacity="0.53"/><circle cx="363.3" cy="260.6" r="1.05" fill="#FFFFFF" opacity="0.42"/><circle cx="449.9" cy="216.7" r="0.70" fill="#FFFFFF" opacity="0.51"/><circle cx="976.0" cy="577.1" r="0.49" fill="#FFFFFF" opacity="0.58"/><circle cx="1171.2" cy="582.6" r="0.60" fill="#FFFFFF" opacity="0.45"/><circle cx="887.4" cy="29.5" r="0.81" fill="#FFFFFF" opacity="0.49"/><circle cx="465.3" cy="436.2" r="0.75" fill="#FFFFFF" opacity="0.62"/>
  <circle cx="600" cy="375" r="170" fill="#3D220A"/>
      <path d="M 430 335 q 170 -60 340 0 q -170 60 -340 0 Z" fill="#D4891A" opacity="0.35"/>
  <rect width="1200" height="750" fill="url(#vg)" opacity="0.5" />
  <defs><radialGradient id="vg" cx="50%" cy="50%" r="80%">
    <stop offset="55%" stop-color="#000000" stop-opacity="0"/>
    <stop offset="100%" stop-color="#000000" stop-opacity="0.55"/>
  </radialGradient></defs>
</svg>